HIERARCHY
ROOT Hips
{
	OFFSET -0.001795 -0.223333 0.028219
	CHANNELS 6 Xposition Yposition Zposition Zrotation Yrotation Xrotation 
	JOINT LeftUpLeg
	{
		OFFSET 0.069520 -0.091406 -0.006815
		CHANNELS 3 Zrotation Yrotation Xrotation
		JOINT LeftLeg
		{
			OFFSET 0.034277 -0.375199 -0.004496
			CHANNELS 3 Zrotation Yrotation Xrotation
			JOINT LeftFoot
			{
				OFFSET -0.013596 -0.397961 -0.043693
				CHANNELS 3 Zrotation Yrotation Xrotation
				JOINT LeftToe
				{
					OFFSET 0.026358 -0.055791 0.119288
					CHANNELS 3 Zrotation Yrotation Xrotation
					End Site
					{
						OFFSET 0.000000 0.000000 0.000000
					}
				}
			}
		}
	}
	JOINT RightUpLeg
	{
		OFFSET -0.067670 -0.090522 -0.004320
		CHANNELS 3 Zrotation Yrotation Xrotation
		JOINT RightLeg
		{
			OFFSET -0.038290 -0.382569 -0.008850
			CHANNELS 3 Zrotation Yrotation Xrotation
			JOINT RightFoot
			{
				OFFSET 0.015774 -0.398415 -0.042312
				CHANNELS 3 Zrotation Yrotation Xrotation
				JOINT RightToe
				{
					OFFSET -0.025372 -0.048144 0.123348
					CHANNELS 3 Zrotation Yrotation Xrotation
					End Site
					{
						OFFSET 0.000000 0.000000 0.000000
					}
				}
			}
		}
	}
	JOINT Spine
	{
		OFFSET -0.002533 0.108963 -0.026696
		CHANNELS 3 Zrotation Yrotation Xrotation
		JOINT Spine1
		{
			OFFSET 0.005487 0.135180 0.001092
			CHANNELS 3 Zrotation Yrotation Xrotation
			JOINT Spine2
			{
				OFFSET 0.001457 0.052922 0.025425
				CHANNELS 3 Zrotation Yrotation Xrotation
				JOINT Neck
				{
					OFFSET -0.002778 0.213870 -0.042857
					CHANNELS 3 Zrotation Yrotation Xrotation
					JOINT Head
					{
						OFFSET 0.005152 0.064970 0.051349
						CHANNELS 3 Zrotation Yrotation Xrotation
						End Site
						{
							OFFSET 0.000000 0.000000 0.000000
						}
					}
				}
				JOINT LeftShoulder
				{
					OFFSET 0.078845 0.121749 -0.034090
					CHANNELS 3 Zrotation Yrotation Xrotation
					JOINT LeftArm
					{
						OFFSET 0.090977 0.030469 -0.008868
						CHANNELS 3 Zrotation Yrotation Xrotation
						JOINT LeftForeArm
						{
							OFFSET 0.259612 -0.012772 -0.027456
							CHANNELS 3 Zrotation Yrotation Xrotation
							JOINT LeftHand
							{
								OFFSET 0.249234 0.008986 -0.001171
								CHANNELS 3 Zrotation Yrotation Xrotation
								End Site
								{
									OFFSET 0.000000 0.000000 0.000000
								}
							}
						}
					}
				}
				JOINT RightShoulder
				{
					OFFSET -0.081759 0.118833 -0.038615
					CHANNELS 3 Zrotation Yrotation Xrotation
					JOINT RightArm
					{
						OFFSET -0.096012 0.032551 -0.009143
						CHANNELS 3 Zrotation Yrotation Xrotation
						JOINT RightForeArm
						{
							OFFSET -0.253742 -0.013329 -0.021401
							CHANNELS 3 Zrotation Yrotation Xrotation
							JOINT RightHand
							{
								OFFSET -0.255298 0.007772 -0.005559
								CHANNELS 3 Zrotation Yrotation Xrotation
								End Site
								{
									OFFSET 0.000000 0.000000 0.000000
								}
							}
						}
					}
				}
			}
		}
	}
}
MOTION
Frames: 13
Frame Time: 0.050000
0.000000 0.930199 0.000000 -0.712438 -1.998252 1.289901 -0.083324 0.167714 1.780556 -0.159947 -0.026307 1.402845 1.671623 2.192005 -3.555470 0.000000 0.000000 0.000000 -0.726100 0.448367 -4.578806 0.391167 0.131697 4.531966 0.407683 1.946105 -1.489612 0.000000 0.000000 0.000000 3.830711 0.028632 -1.018079 -1.314780 0.624258 0.837170 -2.623470 3.853054 5.325932 7.007030 -2.901358 -15.313253 0.000000 0.000000 0.000000 -20.116900 -6.990793 0.954593 -20.389093 -0.837180 -2.040432 3.933139 -24.705772 -0.063811 0.000000 0.000000 0.000000 16.510287 1.981894 0.252242 30.427278 -1.311827 -3.419089 5.368547 35.701512 3.080058 0.000000 0.000000 0.000000 
0.000631 0.929014 0.001110 -0.841327 -1.817759 1.449440 0.592954 0.226144 2.665000 -0.851315 0.101390 -0.209686 1.893071 2.481512 -4.070862 0.000000 0.000000 0.000000 -0.579254 0.435649 -4.425492 0.142756 0.166780 4.546108 0.077356 0.921884 -1.257803 0.000000 0.000000 0.000000 3.863797 0.037758 -1.173232 -1.360964 0.642853 1.306496 -3.228574 4.790377 4.758441 9.343891 -3.895391 -17.096484 0.000000 0.000000 0.000000 -19.427719 -7.561513 0.958146 -19.696495 -1.661436 -1.768604 5.712304 -22.792054 -0.449911 0.000000 0.000000 0.000000 16.815267 1.392720 0.192468 30.953273 -2.293642 -3.746281 6.416006 35.093495 3.434622 0.000000 0.000000 0.000000 
0.002019 0.928390 0.002174 -0.948085 -1.424021 1.615450 0.596264 0.184761 2.215883 -0.535530 0.053420 0.223582 2.216730 2.999415 -4.585256 0.000000 0.000000 0.000000 -0.458511 0.463493 -4.696943 -0.115845 0.241834 5.467546 -0.072798 0.849415 -1.828971 0.000000 0.000000 0.000000 4.733993 0.031368 -1.162623 -1.273515 0.610679 -0.179812 -4.054255 5.129204 5.926044 9.567299 -4.104025 -16.573487 0.000000 0.000000 0.000000 -17.999641 -7.968612 1.154208 -21.396265 -1.351214 -1.981264 5.675684 -22.757849 -0.475690 0.000000 0.000000 0.000000 17.236783 1.627132 0.500639 31.200614 -2.545699 -3.951161 6.352928 36.568473 3.647791 0.000000 0.000000 0.000000 
0.004302 0.928165 0.003487 -1.094832 -0.708386 2.023329 0.329111 0.161036 1.875592 -0.802725 0.063316 0.940811 2.340938 3.002228 -5.140384 0.000000 0.000000 0.000000 -0.518850 0.513109 -5.208263 -0.510656 0.319231 5.917374 -0.158576 0.336760 -1.370162 0.000000 0.000000 0.000000 4.586072 0.053753 -1.532261 -0.912277 0.429957 0.369482 -4.165496 4.158710 5.232096 9.648406 -4.110460 -16.935854 0.000000 0.000000 0.000000 -18.650118 -7.068814 0.747154 -20.762888 -1.586636 -1.889756 6.635823 -22.576261 -0.639286 0.000000 0.000000 0.000000 17.316148 1.867568 0.479456 30.764796 -2.501502 -3.800174 5.494519 36.398820 3.304101 0.000000 0.000000 0.000000 
0.007998 0.927673 0.005176 -1.298569 -0.880163 2.128053 -0.134706 0.149047 1.581031 -0.618182 0.021832 1.648730 2.742541 3.739903 -5.719683 0.000000 0.000000 0.000000 -0.731810 0.552736 -5.661564 -0.625567 0.370140 6.602879 -0.321852 0.039729 -1.609935 0.000000 0.000000 0.000000 4.964696 0.039808 -1.393075 -0.929505 0.441608 0.151025 -4.187279 4.707941 4.832218 10.014405 -4.454296 -16.034881 0.000000 0.000000 0.000000 -18.925955 -7.520740 0.809664 -20.802443 -1.368944 -1.866768 6.186770 -23.114675 -0.582488 0.000000 0.000000 0.000000 17.183844 1.078338 0.158330 30.486293 -2.687672 -3.809473 5.973816 37.273084 3.602776 0.000000 0.000000 0.000000 
0.013068 0.926928 0.007230 -1.533922 -0.974238 2.052514 -0.648005 0.189990 1.841100 -0.226711 -0.040430 2.076392 3.031711 4.403983 -5.820885 0.000000 0.000000 0.000000 -1.005594 0.653626 -6.814736 -0.590093 0.449315 8.391304 -0.532309 -0.347724 -1.924387 0.000000 0.000000 0.000000 5.315646 -0.004002 -0.889121 -0.713518 0.336064 0.293040 -4.293256 4.650964 4.364877 9.696394 -4.199617 -16.252144 0.000000 0.000000 0.000000 -18.691264 -6.526150 0.306891 -21.778391 -1.723415 -1.892341 6.305373 -23.692836 -0.630863 0.000000 0.000000 0.000000 17.012106 0.791699 -0.015152 30.427344 -1.584437 -3.546648 5.610350 36.259466 3.374938 0.000000 0.000000 0.000000 
0.019019 0.926716 0.009359 -1.391498 -1.267185 1.950023 -1.232047 0.254221 2.281746 -0.255800 -0.020792 1.580125 3.068789 4.497102 -5.894225 0.000000 0.000000 0.000000 -1.842218 0.751511 -8.250910 -0.260145 0.529449 11.372260 -0.925577 -0.993519 -2.670599 0.000000 0.000000 0.000000 5.509940 -0.046154 -0.402315 -1.112922 0.534014 -0.197577 -4.153665 4.644676 4.961171 9.780470 -4.201810 -16.716099 0.000000 0.000000 0.000000 -18.901637 -6.144986 0.166345 -22.728126 -1.736612 -2.020900 6.476653 -24.938523 -0.701615 0.000000 0.000000 0.000000 17.295904 0.640675 -0.134576 30.324841 -0.870815 -3.416138 4.853523 35.548248 3.049849 0.000000 0.000000 0.000000 
0.025150 0.925967 0.011586 -1.361601 -1.405332 1.746832 -1.487323 0.349136 3.097171 -0.299649 -0.004181 1.223735 3.026530 4.329024 -6.102311 0.000000 0.000000 0.000000 -1.755768 0.981282 -10.864932 -0.213358 0.792629 17.067723 -1.395630 -1.658415 -3.835053 0.000000 0.000000 0.000000 5.802755 -0.124610 0.466676 -1.515369 0.725115 -0.101491 -4.258679 4.477478 5.101229 10.068932 -4.338166 -17.064245 0.000000 0.000000 0.000000 -18.594629 -5.958488 0.166855 -24.430475 -1.644365 -2.223514 6.155693 -27.156580 -0.695445 0.000000 0.000000 0.000000 17.970914 0.459052 -0.296966 30.948375 0.498411 -3.202892 2.844066 34.437291 2.340919 0.000000 0.000000 0.000000 
0.030597 0.925096 0.014521 -1.304970 -1.809046 1.404389 -1.869337 0.477442 4.124941 -0.507234 0.030939 0.909207 3.087286 4.258448 -6.793292 0.000000 0.000000 0.000000 -1.667489 1.341185 -14.804386 -0.572799 1.334369 24.838181 -1.722440 -2.724549 -3.510435 0.000000 0.000000 0.000000 5.732803 -0.199365 1.390219 -1.751433 0.838144 0.059562 -4.088293 4.387808 5.478904 9.710259 -4.004608 -17.916842 0.000000 0.000000 0.000000 -18.643933 -5.607903 0.084270 -26.199757 -2.249448 -2.335506 5.094268 -28.444969 -0.451561 0.000000 0.000000 0.000000 18.139065 0.579989 -0.304947 31.953953 1.823461 -3.014621 1.881423 32.725481 1.922840 0.000000 0.000000 0.000000 
0.034763 0.924217 0.019339 -1.305110 -1.841763 0.848872 -2.102213 0.652767 5.596456 -0.609716 0.058666 0.363342 3.003508 3.856020 -7.287512 0.000000 0.000000 0.000000 -1.351332 1.823513 -19.573200 -0.093995 1.621917 32.744166 -1.951486 -3.804664 -2.609472 0.000000 0.000000 0.000000 5.787741 -0.339528 3.042304 -2.098025 1.005000 -0.612021 -3.935442 4.023303 6.576699 9.417824 -3.694666 -19.119327 0.000000 0.000000 0.000000 -18.822719 -5.792563 0.320229 -28.030777 -2.666985 -2.524806 5.264483 -29.175730 -0.481095 0.000000 0.000000 0.000000 18.741816 0.577086 -0.404927 33.087944 2.961558 -2.895074 -0.448302 32.017013 1.236453 0.000000 0.000000 0.000000 
0.037514 0.923675 0.027071 -1.327083 -1.067816 -0.060371 -1.798842 0.856946 7.703134 -0.644225 0.078531 -0.232985 2.561724 2.977561 -6.505987 0.000000 0.000000 0.000000 -1.404674 2.162192 -23.519783 0.432166 1.640281 39.349829 -1.330770 -2.924196 -1.019805 0.000000 0.000000 0.000000 5.544927 -0.448023 4.550054 -1.233235 0.593355 -0.068489 -4.751398 3.467085 6.542483 9.541119 -3.622719 -19.910422 0.000000 0.000000 0.000000 -19.719224 -5.521507 0.075879 -28.686423 -2.568394 -2.592994 4.000828 -29.892614 -0.162295 0.000000 0.000000 0.000000 19.795082 0.621109 -0.415383 33.572201 3.208343 -2.892030 0.296340 31.559422 1.409063 0.000000 0.000000 0.000000 
0.039262 0.922937 0.039011 -1.745711 -0.823456 -0.851386 -1.399034 1.024240 9.643467 -0.823805 0.102139 -0.385813 2.976951 3.528934 -7.536257 0.000000 0.000000 0.000000 -1.208886 2.565316 -27.438174 1.514560 1.189879 42.427859 -1.606848 -4.107844 0.055577 0.000000 0.000000 0.000000 5.520409 -0.569096 6.093091 -1.193455 0.590324 -1.243583 -3.952300 2.572773 8.388526 8.989499 -3.186470 -21.617042 0.000000 0.000000 0.000000 -20.727244 -6.213526 0.705235 -30.449185 -2.265244 -3.014022 2.701297 -31.159886 0.264301 0.000000 0.000000 0.000000 19.762553 0.305790 -0.790786 35.003747 2.485281 -3.222761 1.630184 32.854318 1.800851 0.000000 0.000000 0.000000 
0.039895 0.921210 0.055568 -1.877767 0.190461 -0.589287 -1.546532 1.178309 11.121754 -0.480258 0.085279 -1.093847 3.042298 3.498179 -7.659920 0.000000 0.000000 0.000000 -1.305794 2.675240 -29.556519 2.805998 0.220819 35.643398 -2.865781 -7.459835 0.711684 0.000000 0.000000 0.000000 5.367354 -0.534347 5.679497 -0.482145 0.250750 -0.798778 -4.028955 0.795214 8.550167 7.703060 -2.558329 -21.994826 0.000000 0.000000 0.000000 -20.980355 -5.271657 0.545090 -33.096218 -2.643100 -3.321092 1.063422 -32.361378 0.843884 0.000000 0.000000 0.000000 18.578332 0.326856 -1.028438 38.314031 0.716106 -3.873741 2.457001 33.640880 2.007575 0.000000 0.000000 0.000000 
